# xmcd
# 
# Track frame offsets:
#     150
#     12007
#     26044
#     36271
#     49890
#     59281
#     72022
#     82416
#     94774
#     110497
#     120786
#     132489
#     142785
#     154934
#     165906
#     176063
#     188400
#     200069
#     210010
#     233939
# 
# Disc length: 3439
# 
# Revision: 1
# Processed by: cddbd v1.5.2PL0 Copyright (c) Steve Scherf et al.
# Submitted via: fre:ac v1.0.17
# 
DISCID=080d6d14
DTITLE=Chuck Berry - Mari Cantareti de Jazz si Blues 11
DYEAR=2013
DGENRE=Blues
TTITLE0=Maybellene
TTITLE1=Wee Wee Hours
TTITLE2=Thirty Days
TTITLE3=No Money Down
TTITLE4=Roll Over Beethoven
TTITLE5=Too Much Monkey Business
TTITLE6=Brown-Eyed Handsome Man
TTITLE7=You Can't Catch Me
TTITLE8=School Days
TTITLE9=Oh Baby Doll
TTITLE10=Rock And Roll Music
TTITLE11=Sweet Little Sixteen
TTITLE12=Johnny B. Goode
TTITLE13=Carol
TTITLE14=Sweet Little Rock N' Roller
TTITLE15=Little Queenie
TTITLE16=Back In The U.S.A.
TTITLE17=Memphis, Tennessee
TTITLE18=Reelin' And A-Rocking
TTITLE19=My Ding-A-Ling
EXTD=
EXTT0=
EXTT1=
EXTT2=
EXTT3=
EXTT4=
EXTT5=
EXTT6=
EXTT7=
EXTT8=
EXTT9=
EXTT10=
EXTT11=
EXTT12=
EXTT13=
EXTT14=
EXTT15=
EXTT16=
EXTT17=
EXTT18=
EXTT19=
PLAYORDER=
